<?xml version="1.0" encoding="utf-8"?>
<!-- Generator: Adobe Illustrator 27.5.0, SVG Export Plug-In . SVG Version: 6.00 Build 0)  -->
<svg version="1.1" xmlns="http://www.w3.org/2000/svg" xmlns:xlink="http://www.w3.org/1999/xlink" x="0px" y="0px"
	 viewBox="0 0 500 500" style="enable-background:new 0 0 500 500;" xml:space="preserve">
<g id="BACKGROUND">
	<rect style="fill:#FFFFFF;" width="500" height="500"/>
</g>
<g id="OBJECTS">
	<path style="fill:#F4F4F4;" d="M53.458,450.019c0,0-61.508-126.924,13.678-135.866c54.673-6.502,37.165,26.299,106.084,19.091
		c68.919-7.208,59.557-88.882,113.66-89.233c54.103-0.351,51.711,36.36,54.093,66.505c2.383,30.145,108.976,18.165,119.53,57.422
		C471.058,407.195,444.499,450,444.499,450L53.458,450.019z"/>
	<g>
		<path style="fill:#E53528;" d="M199.118,186.127h-45.043c-7.206,0-13.047,5.841-13.047,13.047v39.692
			c0,7.206,5.842,13.047,13.047,13.047h32.853l12.19,12.19v-12.19l0,0c7.206,0,13.047-5.842,13.047-13.047v-39.692
			C212.165,191.969,206.324,186.127,199.118,186.127z"/>
		<path style="fill:#FFFFFF;" d="M176.596,204.486L176.596,204.486c-0.402-0.402-0.813-0.786-1.234-1.154
			c-11.863-10.36-27.798,6.991-16.661,18.129l17.895,17.895l17.895-17.895c11.137-11.137-4.798-28.489-16.661-18.129
			C177.41,203.7,176.998,204.084,176.596,204.486L176.596,204.486z"/>
		<g>
			<path style="fill:none;stroke:#000000;stroke-linecap:round;stroke-linejoin:round;stroke-miterlimit:10;" d="M186.928,251.913
				l12.19,12.19v-12.19l0,0c7.206,0,13.047-5.842,13.047-13.047"/>
			<path style="fill:none;stroke:#000000;stroke-linecap:round;stroke-linejoin:round;stroke-miterlimit:10;" d="M141.027,238.866
				c0,7.206,5.842,13.047,13.047,13.047H168.8"/>
			<path style="fill:none;stroke:#000000;stroke-linecap:round;stroke-linejoin:round;stroke-miterlimit:10;" d="M199.118,186.127
				h-45.043c-7.206,0-13.047,5.841-13.047,13.047"/>
		</g>
	</g>
	<g>
		<g>
			<rect x="105.121" y="430.438" style="fill:#E5410E;" width="3.394" height="19.547"/>
			<rect x="108.478" y="430.438" style="fill:#FF7F0B;" width="3.394" height="19.547"/>
			<rect x="80.581" y="430.438" style="fill:#E5410E;" width="3.394" height="19.547"/>
			<rect x="83.937" y="430.438" style="fill:#FF7F0B;" width="3.394" height="19.547"/>
			<rect x="127.599" y="430.438" style="fill:#E5410E;" width="3.394" height="19.547"/>
			<rect x="130.955" y="430.438" style="fill:#FF7F0B;" width="3.394" height="19.547"/>
			<rect x="150.166" y="430.438" style="fill:#E5410E;" width="3.394" height="19.547"/>
			<rect x="153.523" y="430.438" style="fill:#FF7F0B;" width="3.394" height="19.547"/>
			<rect x="80.581" y="430.438" style="fill:#E5410E;" width="50.393" height="2.99"/>
			<rect x="130.974" y="430.438" style="fill:#FF7F0B;" width="25.943" height="2.99"/>
		</g>
		<g>
			<rect x="79.337" y="312.359" style="fill:#006CCE;" width="51.637" height="118.079"/>
			<rect x="130.974" y="312.359" style="fill:#F4F4F4;" width="27.187" height="118.079"/>
			<rect x="108.496" y="314.612" style="fill:#CAD9DB;" width="20.505" height="113.574"/>
			<rect x="81.31" y="314.612" style="fill:#F4F4F4;" width="27.187" height="113.574"/>
			<rect x="81.31" y="341.443" style="fill:#82B1DB;" width="47.691" height="2.253"/>
			<rect x="81.31" y="370.527" style="fill:#82B1DB;" width="47.691" height="2.253"/>
			<rect x="81.31" y="399.611" style="fill:#82B1DB;" width="47.691" height="2.253"/>
			<polyline style="fill:none;stroke:#000000;stroke-linecap:round;stroke-linejoin:round;stroke-miterlimit:10;" points="
				79.337,312.359 158.161,312.359 158.161,406.553 			"/>
			<polyline style="fill:none;stroke:#000000;stroke-linecap:round;stroke-linejoin:round;stroke-miterlimit:10;" points="
				79.337,419.832 79.337,430.438 158.161,430.438 			"/>
			
				<line style="fill:none;stroke:#000000;stroke-linecap:round;stroke-linejoin:round;stroke-miterlimit:10;" x1="130.955" y1="338.55" x2="130.993" y2="419.024"/>
		</g>
		<g>
			<rect x="89.459" y="324.852" width="4.707" height="16.592"/>
			<rect x="94.166" y="320.867" style="fill:#CAD9DB;" width="4.707" height="20.576"/>
			<rect x="98.873" y="320.867" style="fill:#184C42;" width="4.707" height="20.576"/>
			<rect x="103.58" y="320.867" style="fill:#2C665B;" width="4.707" height="20.576"/>
			<rect x="103.58" y="322.979" style="fill:#F4F4F4;" width="4.707" height="18.464"/>
			<rect x="108.287" y="320.867" style="fill:#FF7F0B;" width="4.707" height="20.576"/>
			<rect x="112.994" y="320.867" style="fill:#FFB434;" width="13.172" height="20.576"/>
			
				<line style="fill:none;stroke:#000000;stroke-linecap:round;stroke-linejoin:round;stroke-miterlimit:10;" x1="108.287" y1="320.867" x2="108.46" y2="337.77"/>
			
				<line style="fill:none;stroke:#000000;stroke-linecap:round;stroke-linejoin:round;stroke-miterlimit:10;" x1="98.873" y1="320.867" x2="98.873" y2="339.669"/>
			<polyline style="fill:none;stroke:#000000;stroke-linecap:round;stroke-linejoin:round;stroke-miterlimit:10;" points="
				94.166,330.654 94.166,320.867 122.981,320.867 			"/>
			<path style="fill:#F4F4F4;" d="M125.031,331.516c0,4.503-2.345,8.153-5.238,8.153s-5.238-3.65-5.238-8.153
				s2.345-8.153,5.238-8.153S125.031,327.013,125.031,331.516z"/>
		</g>
		<g>
			<rect x="82.361" y="383.062" style="fill:#FFB434;" width="4.707" height="16.592"/>
			<rect x="87.068" y="379.078" style="fill:#F4F4F4;" width="4.707" height="20.576"/>
			<rect x="91.775" y="379.078" style="fill:#FF7F0B;" width="4.707" height="20.576"/>
			<rect x="96.482" y="379.078" style="fill:#E5410E;" width="4.707" height="20.576"/>
			<rect x="96.482" y="381.19" width="4.707" height="18.464"/>
			<rect x="101.189" y="379.078" style="fill:#F4F4F4;" width="4.707" height="20.576"/>
			<rect x="105.896" y="379.078" width="4.707" height="20.576"/>
			<rect x="110.603" y="379.078" style="fill:#5B93BC;" width="4.707" height="20.576"/>
			<rect x="115.309" y="379.078" style="fill:#F4F4F4;" width="10.422" height="20.576"/>
			
				<line style="fill:none;stroke:#000000;stroke-linecap:round;stroke-linejoin:round;stroke-miterlimit:10;" x1="101.189" y1="379.078" x2="101.362" y2="395.98"/>
			
				<line style="fill:none;stroke:#000000;stroke-linecap:round;stroke-linejoin:round;stroke-miterlimit:10;" x1="91.775" y1="379.078" x2="91.775" y2="397.879"/>
			<polyline style="fill:none;stroke:#000000;stroke-linecap:round;stroke-linejoin:round;stroke-miterlimit:10;" points="
				87.068,388.864 87.068,379.078 115.883,379.078 			"/>
			
				<line style="fill:none;stroke:#000000;stroke-linecap:round;stroke-linejoin:round;stroke-miterlimit:10;" x1="125.732" y1="379.078" x2="125.756" y2="395.269"/>
			
				<line style="fill:none;stroke:#000000;stroke-linecap:round;stroke-linejoin:round;stroke-miterlimit:10;" x1="82.361" y1="385.144" x2="82.361" y2="399.654"/>
		</g>
	</g>
	<g>
		<g>
			
				<rect x="345.184" y="281.271" transform="matrix(-1 -1.224647e-16 1.224647e-16 -1 708.182 641.7341)" style="fill:#F4F4F4;" width="17.813" height="79.192"/>
			
				<rect x="226.526" y="281.271" transform="matrix(-1 -1.224647e-16 1.224647e-16 -1 571.7106 641.7341)" style="fill:#CAD9DB;" width="118.658" height="79.192"/>
			
				<rect x="299.365" y="326.756" transform="matrix(-1 -1.224647e-16 1.224647e-16 -1 690.3688 710.1289)" style="fill:#F4F4F4;" width="91.638" height="56.616"/>
			
				<rect x="276.456" y="326.756" transform="matrix(-1 -1.224647e-16 1.224647e-16 -1 575.8215 710.1289)" style="fill:#CAD9DB;" width="22.909" height="56.616"/>
			
				<rect x="176.596" y="326.756" transform="matrix(-1 -1.224647e-16 1.224647e-16 -1 403.1226 687.2194)" style="fill:#F4F4F4;" width="49.93" height="33.707"/>
			
				<rect x="153.687" y="326.756" transform="matrix(-1 -1.224647e-16 1.224647e-16 -1 330.2833 710.1289)" style="fill:#CAD9DB;" width="22.91" height="56.616"/>
			
				<rect x="215.071" y="321.988" transform="matrix(-1.836970e-16 1 -1 -1.836970e-16 598.444 145.3916)" style="fill:#CAD9DB;" width="22.91" height="99.86"/>
			
				<rect x="299.365" y="383.373" transform="matrix(-1 -1.224647e-16 1.224647e-16 -1 679.5081 773.5356)" style="fill:#FFB434;" width="80.777" height="6.79"/>
			
				<rect x="165.142" y="383.373" transform="matrix(-1 -1.224647e-16 1.224647e-16 -1 464.5072 773.5356)" style="fill:#FF7F0B;" width="134.224" height="6.79"/>
			<polygon style="fill:#E5410E;" points="344.678,449.985 348.62,449.985 362.998,390.163 354.091,390.163 			"/>
			<polygon style="fill:#E5410E;" points="195.938,449.985 199.88,449.985 185.503,390.163 176.596,390.163 			"/>
			<polygon style="fill:#E5410E;" points="252.869,449.985 256.811,449.985 242.434,390.163 233.528,390.163 			"/>
			<polygon style="fill:#FF7F0B;" points="284.988,449.985 288.931,449.985 308.272,390.163 299.365,390.163 			"/>
			<polygon style="fill:#E5410E;" points="281.046,449.985 284.988,449.985 299.365,390.163 290.459,390.163 			"/>
			<polygon style="fill:#E5410E;" points="256.811,449.985 260.754,449.985 251.341,390.163 242.434,390.163 			"/>
			<polygon style="fill:#FF7F0B;" points="348.62,449.985 352.563,449.985 371.904,390.163 362.998,390.163 			"/>
			<polygon style="fill:#E5410E;" points="199.88,449.985 203.823,449.985 194.41,390.163 185.503,390.163 			"/>
			<polyline style="fill:none;stroke:#000000;stroke-linecap:round;stroke-linejoin:round;stroke-miterlimit:10;" points="
				351.875,326.756 276.456,326.756 276.456,360.463 276.456,367.229 			"/>
			
				<line style="fill:none;stroke:#000000;stroke-linecap:round;stroke-linejoin:round;stroke-miterlimit:10;" x1="176.596" y1="360.463" x2="276.456" y2="360.463"/>
			
				<line style="fill:none;stroke:#000000;stroke-linecap:round;stroke-linejoin:round;stroke-miterlimit:10;" x1="226.526" y1="281.271" x2="226.526" y2="340.928"/>
			<polyline style="fill:none;stroke:#000000;stroke-linecap:round;stroke-linejoin:round;stroke-miterlimit:10;" points="
				324.846,383.373 153.687,383.373 153.687,326.756 			"/>
			<polyline style="fill:none;stroke:#000000;stroke-linecap:round;stroke-linejoin:round;stroke-miterlimit:10;" points="
				391.003,363.637 391.003,326.756 375.86,326.756 			"/>
			<polyline style="fill:none;stroke:#000000;stroke-linecap:round;stroke-linejoin:round;stroke-miterlimit:10;" points="
				362.998,309.35 362.998,281.271 256.77,281.271 			"/>
		</g>
		<g>
			<path style="fill:#FFB9A4;" d="M226.602,272.977L202.88,314.22l-44.991-4.947c0,0-14.445,1.827-14.425,11.594
				c0.024,12.006,10.223,15.065,10.223,15.065l9.339-0.576l3.794-8.6l17.893,10.452l34.61,2.461L226.602,272.977z"/>
			<path d="M226.6,272.972l-6.527,59.805c-16.162-5.708-15.933-20.75-15.933-20.75v-0.012L226.6,272.972z"/>
			<path style="fill:#F4F4F4;" d="M235.144,267.868l39.715-11.988c9.405-2.839,18.84,4.331,18.624,14.152l-1.245,56.725h-15.782
				v33.707h-66.855l11.206-75.983C221.964,276.633,227.55,270.16,235.144,267.868z"/>
			<path style="fill:#CAD9DB;" d="M293.45,268.793c-1.421,1.975-3.047,4.01-4.89,6.082c-17.763,19.991-47.148,19.389-68.608,15.391
				l0.855-5.781c1.156-7.852,6.744-14.331,14.331-16.619l39.718-11.983C283.864,253.161,292.896,259.616,293.45,268.793z"/>
			<path style="fill:#CAD9DB;" d="M226.602,272.977l-25.04,29.711c0,0,1.598,17.421,13.879,18.179L226.602,272.977z"/>
			
				<line style="fill:none;stroke:#000000;stroke-linecap:round;stroke-linejoin:round;stroke-miterlimit:10;" x1="157.13" y1="329.066" x2="163.025" y2="335.357"/>
			
				<line style="fill:none;stroke:#000000;stroke-linecap:round;stroke-linejoin:round;stroke-miterlimit:10;" x1="150.85" y1="329.915" x2="156.809" y2="335.74"/>
			<path style="fill:none;stroke:#000000;stroke-linecap:round;stroke-linejoin:round;stroke-miterlimit:10;" d="M165.142,318.262
				l-1.404,4.014l3.081,4.481c7.813,0.704,7.48-5.889,7.48-5.889"/>
			<path style="fill:none;stroke:#000000;stroke-linecap:round;stroke-linejoin:round;stroke-miterlimit:10;" d="M146.396,314.22
				c0,0,6.658-4.947,11.492-4.947l35.663,3.921"/>
			
				<line style="fill:none;stroke:#000000;stroke-linecap:round;stroke-linejoin:round;stroke-miterlimit:10;" x1="166.819" y1="326.756" x2="184.712" y2="337.208"/>
			<path d="M173.828,323.363c0,0-0.903,5.616,2.33,8.849l-9.339-5.455C170.18,327.162,172.528,326.047,173.828,323.363z"/>
			<path style="fill:none;stroke:#000000;stroke-linecap:round;stroke-linejoin:round;stroke-miterlimit:10;" d="M152.281,335.357
				c0,0-7.684-4.272-8.65-11.994"/>
			<path style="fill:#FFB9A4;" d="M242.434,253.408c0.436,4.74,0.033,9.124-1.932,12.842c0,0-1.783,12.913,7.952,12.06
				c9.735-0.853,14.799-18.928,14.799-18.928c-1.235-1.889-1.185-8.218-1.071-14.77L242.434,253.408z"/>
			<path d="M263.251,259.38c-13.201,10.235-20.798,0.072-20.798,0.072c0.205-1.927,0.169-3.95-0.024-6.046l19.75-8.791
				C262.071,251.167,262.023,257.489,263.251,259.38z"/>
			<path style="fill:none;stroke:#000000;stroke-linecap:round;stroke-linejoin:round;stroke-miterlimit:10;" d="M246.766,278.351
				c-7.721,0-6.264-12.101-6.264-12.101l-4.537,1.504c-3.173,1.052-6.076,2.773-8.509,5.066c-1.498,1.411-3.378,3.319-5.684,5.886
				c-6.533,7.271-20.211,23.981-20.211,23.981"/>
		</g>
		<g>
			<path style="fill:#FF8C71;" d="M239.266,246.996c0,2.765-2.241,5.006-5.006,5.006c-2.765,0-5.006-2.241-5.006-5.006
				s2.241-5.006,5.006-5.006C237.025,241.99,239.266,244.231,239.266,246.996z"/>
			<path style="fill:#FF8C71;" d="M271.231,245.547c0,2.765-2.241,5.006-5.006,5.006c-2.765,0-5.006-2.241-5.006-5.006
				s2.241-5.006,5.006-5.006C268.99,240.541,271.231,242.782,271.231,245.547z"/>
			<path style="fill:#FFB9A4;" d="M266.749,232.26c4.013,9.102-3.589,25.261-12.691,29.274c-9.102,4.013-16.257-5.64-20.269-14.742
				c-4.013-9.102,0.112-19.733,9.214-23.746C252.104,219.033,262.736,223.159,266.749,232.26z"/>
			<path style="fill:#E5410E;" d="M244.019,253.059h11.736c0,0-2.214,4.152-5.868,4.401
				C246.234,257.71,244.019,253.059,244.019,253.059z"/>
			<path d="M236.215,251.605v-6.993l2.332-2.623l0.719-5.565c7.156,2.411,14.478,2.355,21.953,0l0.747,5.565l2.071,3.557
				l-0.358,6.455c0,0,3.936-3.15,5.174-13.665c1.238-10.515-5.6-12.282-5.6-12.282s-4.155-9.544-14.351-7.632
				c-10.196,1.912-18.799,7.488-17.843,18.321C232.015,247.577,236.215,251.605,236.215,251.605z"/>
			<path d="M255.758,246.996c0,0.73-0.591,1.321-1.321,1.321c-0.73,0-1.321-0.591-1.321-1.321c0-0.73,0.591-1.321,1.321-1.321
				C255.166,245.675,255.758,246.266,255.758,246.996z"/>
			<path d="M244.337,246.996c0,0.73-0.591,1.321-1.321,1.321c-0.73,0-1.321-0.591-1.321-1.321c0-0.73,0.591-1.321,1.321-1.321
				C243.746,245.675,244.337,246.266,244.337,246.996z"/>
			<path d="M239.988,242.065l3.531,0.977c0,0-1.187-2.723-2.653-2.584C239.399,240.599,239.988,242.065,239.988,242.065z"/>
			<path d="M254.437,244.008l4.612-1.038c0,0-1.185-1.222-1.972-1.222S254.437,244.008,254.437,244.008z"/>
		</g>
		<path style="fill:#FF8C71;" d="M246.766,249.384h3.95c0,0-0.614,1.39-1.975,1.448C247.38,250.89,246.766,249.384,246.766,249.384z
			"/>
		<g>
			<polygon style="fill:#FFB9A4;" points="146.73,433.076 141.817,443.549 125.022,447.768 165.142,449.996 168.757,430.77 			"/>
			<path style="fill:#5B93BC;" d="M246.528,334.656l-71.968,2.971c-7.89,0.896-14.423,6.54-16.454,14.217l-21.85,82.579
				c0,0,11.515,15.028,35.799,1.815l18.084-69.009l42.114-3.593L246.528,334.656z"/>
			<polygon points="140.764,442.154 144.998,447.768 165.561,447.768 165.142,449.996 121.914,449.996 121.914,447.768 
				133.024,447.768 130.163,444.907 			"/>
			<path style="fill:none;stroke:#000000;stroke-linecap:round;stroke-linejoin:round;stroke-miterlimit:10;" d="M146.89,425.135
				c0,0,4.82,8.401,23.084,1.67"/>
			<path style="fill:none;stroke:#000000;stroke-linecap:round;stroke-linejoin:round;stroke-miterlimit:10;" d="M158.184,437.066
				l22.543-72.345c0.825-2.647,2.961-4.678,5.646-5.368l16.679-4.288"/>
			<polygon points="190.139,367.229 204.806,349.225 200.056,366.384 			"/>
			
				<line style="fill:none;stroke:#000000;stroke-linecap:round;stroke-linejoin:round;stroke-miterlimit:10;" x1="136.256" y1="434.423" x2="157.13" y2="355.534"/>
		</g>
		<g>
			<polygon style="fill:#FFB9A4;" points="193.014,433.076 188.101,443.549 171.307,447.768 211.845,447.768 215.042,430.77 			"/>
			<path style="fill:#5B93BC;" d="M276.456,331.258l-56.099,6.369c-7.89,0.896-14.423,6.54-16.454,14.217l-21.85,82.579
				c0,0,11.515,15.028,35.799,1.815l18.084-69.009l40.52-6.766V331.258z"/>
			<polygon points="187.674,442.154 191.908,447.768 212.47,447.768 212.051,449.996 168.824,449.996 168.824,447.768 
				179.934,447.768 177.073,444.907 			"/>
			<path style="fill:none;stroke:#000000;stroke-linecap:round;stroke-linejoin:round;stroke-miterlimit:10;" d="M182.054,434.423
				l21.85-82.579c0,0,2.885-12.867,23.656-15.035"/>
			<path style="fill:none;stroke:#000000;stroke-linecap:round;stroke-linejoin:round;stroke-miterlimit:10;" d="M191.392,428.186
				c0,0,14.14,5.93,23.978-0.037"/>
			<path style="fill:none;stroke:#000000;stroke-linecap:round;stroke-linejoin:round;stroke-miterlimit:10;" d="M276.456,344.586
				l-42.909,13.518c-2.665,0.84-4.699,3.009-5.365,5.723l-17.331,70.596"/>
			<polyline style="fill:none;stroke:#000000;stroke-linecap:round;stroke-linejoin:round;stroke-miterlimit:10;" points="
				276.456,332.508 276.456,360.463 235.936,367.229 			"/>
			<path d="M276.456,335.624c-2.036,12.055-5.757,21.747-12.673,26.956l12.673-2.116L276.456,335.624z"/>
		</g>
		<g>
			<polygon points="205.531,279.478 229.255,278.351 233.528,314.22 211.929,314.22 			"/>
			<path style="fill:#F4F4F4;" d="M212.115,286.363c0,0.968-0.785,1.753-1.753,1.753c-0.968,0-1.753-0.785-1.753-1.753
				c0-0.968,0.785-1.753,1.753-1.753C211.33,284.61,212.115,285.395,212.115,286.363z"/>
			<path style="fill:#FFB9A4;" d="M295.92,266.52l9.911,42.753c2.575,11.109-4.34,22.587-15.56,24.623
				c-20.91,3.796-61.017-28.348-61.017-28.348H207.04l-5.479-8.708l27.693-5.966l2.999-5.932l3.723,2.61v5.347l37.269,8.397
				l-4.215-30.938c-0.319-5.716,2.967-11.022,8.227-13.283h0C285.062,253.719,294.002,258.243,295.92,266.52z"/>
			<path d="M271.686,300.945c0,0,18.496,8.944,33.309,4.723l-2.453-10.584L271.686,300.945z"/>
			<path style="fill:#CAD9DB;" d="M279.734,255.253c0,0,13.161-0.759,16.896,7.279c3.735,8.038,11.642,31.973,11.642,31.973
				s-9.852,16.267-36.586,6.44l-2.656-30.587C269.03,270.358,266.606,259.494,279.734,255.253z"/>
			
				<line style="fill:none;stroke:#000000;stroke-linecap:round;stroke-linejoin:round;stroke-miterlimit:10;" x1="271.686" y1="300.945" x2="270.004" y2="281.572"/>
			
				<line style="fill:none;stroke:#000000;stroke-linecap:round;stroke-linejoin:round;stroke-miterlimit:10;" x1="266.225" y1="288.817" x2="271.295" y2="296.442"/>
			<path style="fill:none;stroke:#000000;stroke-linecap:round;stroke-linejoin:round;stroke-miterlimit:10;" d="M306.369,316.424
				c0,0-1.374,10.332-9.739,15.079c-10.659,6.048-25.785-0.847-25.785-0.847"/>
			
				<line style="fill:none;stroke:#000000;stroke-linecap:round;stroke-linejoin:round;stroke-miterlimit:10;" x1="203.668" y1="300.188" x2="213.55" y2="300.188"/>
			
				<line style="fill:none;stroke:#000000;stroke-linecap:round;stroke-linejoin:round;stroke-miterlimit:10;" x1="205.531" y1="303.15" x2="214.081" y2="303.487"/>
			<polyline style="fill:none;stroke:#000000;stroke-linecap:round;stroke-linejoin:round;stroke-miterlimit:10;" points="
				235.976,287.552 235.976,292.899 255.755,297.355 			"/>
			<path style="fill:none;stroke:#000000;stroke-linecap:round;stroke-linejoin:round;stroke-miterlimit:10;" d="M279.734,255.253
				c0,0,13.63-0.764,16.896,7.279c3.266,8.044,4.853,12.342,4.853,12.342"/>
			<path style="fill:none;stroke:#000000;stroke-linecap:round;stroke-linejoin:round;stroke-miterlimit:10;" d="M229.255,305.548
				c0,0,17.997,14.154,29.794,19.631"/>
			<path style="fill:none;stroke:#000000;stroke-linecap:round;stroke-linejoin:round;stroke-miterlimit:10;" d="M304.371,283.022
				l3.901,11.483c0,0-2.285,5.212-8.907,7.201"/>
		</g>
		<polyline style="fill:none;stroke:#000000;stroke-linecap:round;stroke-linejoin:round;stroke-miterlimit:10;" points="
			391.003,377.093 391.003,383.373 360.262,383.373 		"/>
		
			<line style="fill:none;stroke:#000000;stroke-linecap:round;stroke-linejoin:round;stroke-miterlimit:10;" x1="299.365" y1="349.225" x2="299.365" y2="383.373"/>
	</g>
	<g>
		<g>
			<polygon style="fill:#E5410E;" points="99.955,449.996 95.702,449.996 71.616,391.342 75.869,391.342 			"/>
			<polygon style="fill:#E5410E;" points="140.468,449.996 144.72,449.996 168.806,391.342 164.553,391.342 			"/>
			<polygon style="fill:#FF7F0B;" points="116.622,449.996 120.875,449.996 126.897,391.342 122.644,391.342 			"/>
			<polygon points="75.87,391.342 80.097,401.651 75.738,401.362 71.619,391.342 			"/>
			<polygon points="122.645,391.342 126.896,391.342 125.523,404.674 121.308,404.397 			"/>
			<polygon points="168.806,391.342 162.326,407.13 158.184,406.853 164.554,391.342 			"/>
		</g>
		<g>
			<path d="M55.774,392.208v2.842c0,1.57,28.195,2.842,62.975,2.842s62.975-1.273,62.975-2.842v-2.842H55.774z"/>
			<path style="fill:#F4F4F4;" d="M181.724,392.208c0,1.57-28.195,2.842-62.975,2.842s-62.975-1.272-62.975-2.842
				c0-1.57,28.195-2.842,62.975-2.842S181.724,390.638,181.724,392.208z"/>
			<path style="fill:none;stroke:#000000;stroke-linecap:round;stroke-linejoin:round;stroke-miterlimit:10;" d="M55.774,392.208
				c0,0,3.182-2.842,62.975-2.842"/>
		</g>
	</g>
	<g>
		<rect x="334.352" y="185.936" width="2.33" height="264.061"/>
		<rect x="318.103" y="446.513" width="34.829" height="3.472"/>
		<g>
			<rect x="318.571" y="201.591" style="fill:#E5410E;" width="33.894" height="15.372"/>
			<polygon style="fill:#F4F4F4;" points="362.156,214.152 308.879,214.152 317.842,160.875 353.193,160.875 			"/>
			<polyline style="fill:none;stroke:#000000;stroke-linecap:round;stroke-linejoin:round;stroke-miterlimit:10;" points="
				331.775,161.217 353.193,160.875 362.156,214.152 			"/>
			<polyline style="fill:none;stroke:#000000;stroke-linecap:round;stroke-linejoin:round;stroke-miterlimit:10;" points="
				313.361,187.513 308.879,214.152 342.823,214.152 			"/>
		</g>
	</g>
	<g>
		<path style="fill:#2C665B;" d="M440.498,308.39c-24.62,12.266-29.866,31.478-30.936,37.61c0.136-9.027-0.285-17.427-1.109-25.188
			c22.815-5.539,21.22-33.332,21.22-33.332c-18.034,11.258-20.955,26.347-21.419,31.551c-0.965-8.359-2.392-15.96-4.076-22.796
			c16.569-6.935,11.929-27.701,11.929-27.701c-12.504,10.976-12.515,23.026-12.188,26.657c-1.587-6.269-3.385-11.876-5.23-16.821
			c12.944-6.546,8.079-23.046,8.079-23.046c-9.319,9.359-8.908,18.899-8.452,22.05c-2-5.246-4.043-9.713-5.922-13.397
			c8.733-5.48,4.288-16.891,4.288-16.891c-5.859,6.978-5.267,13.527-4.754,15.989c-1.831-3.516-3.482-6.262-4.755-8.231
			c-0.36-10.083-12.216-12.16-12.216-12.16c3.226,9.492,10.056,12.036,11.811,12.544c1.232,1.909,2.814,4.541,4.567,7.891
			c-6.532-6.801-16.57-1.431-16.57-1.431c8.596,5.614,15.672,3.162,17.146,2.544c1.839,3.606,3.837,7.972,5.798,13.087
			c-8.227-10.71-23.148-4.282-23.148-4.282c11.435,8.938,21.682,6.183,23.623,5.541c1.813,4.86,3.58,10.365,5.144,16.512
			c-9.162-14.193-28.268-7.445-28.268-7.445c13.346,11.956,26.198,9.378,28.595,8.756c1.731,7.035,3.189,14.884,4.15,23.54
			c-8.527-21.222-35.377-16.408-35.377-16.408c15.275,18.969,33.169,17.647,35.484,17.387c0.844,7.974,1.261,16.624,1.084,25.941
			c-8.11-27.981-42.707-25.154-42.707-25.154c16.989,25.814,39.759,26.302,42.691,26.254c0.006,0.139,0.112,0.253,0.25,0.264
			c0.005,0,0.01,0.001,0.015,0c0.152,0.004,0.278-0.116,0.282-0.268c0-0.014,0-0.027,0.001-0.041
			C439.141,343.789,440.498,308.39,440.498,308.39z"/>
		<g>
			<polygon style="fill:#82B1DB;" points="427.291,445.553 383.947,445.553 371.904,343.696 439.334,343.696 			"/>
			<polygon style="fill:#F4F4F4;" points="436.978,363.631 427.295,445.56 383.953,445.56 374.27,363.631 			"/>
			<rect x="386.075" y="445.553" width="39.088" height="4.443"/>
			<polyline style="fill:none;stroke:#000000;stroke-linecap:round;stroke-linejoin:round;stroke-miterlimit:10;" points="
				371.904,343.696 383.947,445.553 414.501,445.553 			"/>
			<polyline style="fill:none;stroke:#000000;stroke-linecap:round;stroke-linejoin:round;stroke-miterlimit:10;" points="
				400.675,343.61 439.334,343.696 429.349,428.148 			"/>
		</g>
	</g>
	<g>
		<path style="fill:#FFFFFF;stroke:#000000;stroke-linecap:round;stroke-linejoin:round;stroke-miterlimit:10;" d="M395.294,57.571
			H66.68c-7.18,0-13,5.82-13,13v64.743c0,7.18,5.82,13,13,13h207.226l-5.053,54.117l39.846-54.117h86.594c7.18,0,13-5.82,13-13
			V70.571C408.294,63.391,402.474,57.571,395.294,57.571z"/>
		<g>
			<polygon style="fill:#FFCC61;" points="97.185,114.512 81.921,122.537 84.836,105.54 72.487,93.503 89.553,91.023 97.185,75.558 
				104.817,91.023 121.884,93.503 109.534,105.54 112.45,122.537 			"/>
			<polygon style="fill:#FFA543;" points="121.884,93.503 96.339,99.94 109.534,105.54 			"/>
			<polygon style="fill:#FFA543;" points="96.339,99.94 81.921,122.537 97.185,114.512 			"/>
			<polygon style="fill:#FFA543;" points="96.339,99.94 81.921,122.537 97.185,114.512 			"/>
			<polygon style="fill:#FFA543;" points="96.339,99.94 112.45,122.537 109.534,105.54 			"/>
			<polygon style="fill:#FFA543;" points="97.185,75.558 104.817,91.023 96.339,99.94 			"/>
			<polygon style="fill:#FFA543;" points="72.487,93.503 96.339,99.94 84.836,105.54 			"/>
			
				<line style="fill:none;stroke:#000000;stroke-linecap:round;stroke-linejoin:round;stroke-miterlimit:10;" x1="84.836" y1="105.54" x2="72.487" y2="93.503"/>
			<polyline style="fill:none;stroke:#000000;stroke-linecap:round;stroke-linejoin:round;stroke-miterlimit:10;" points="
				97.185,114.512 81.921,122.537 83.697,112.178 			"/>
			<polyline style="fill:none;stroke:#000000;stroke-linecap:round;stroke-linejoin:round;stroke-miterlimit:10;" points="
				92.848,84.346 97.185,75.558 104.817,91.023 121.884,93.503 109.534,105.54 112.45,122.537 			"/>
		</g>
		<g>
			<polygon style="fill:#FFCC61;" points="162.913,114.512 147.649,122.537 150.564,105.54 138.215,93.503 155.281,91.023 
				162.913,75.558 170.546,91.023 187.612,93.503 175.262,105.54 178.178,122.537 			"/>
			<polygon style="fill:#FFA543;" points="187.612,93.503 162.067,99.94 175.262,105.54 			"/>
			<polygon style="fill:#FFA543;" points="162.067,99.94 147.649,122.537 162.913,114.512 			"/>
			<polygon style="fill:#FFA543;" points="162.067,99.94 147.649,122.537 162.913,114.512 			"/>
			<polygon style="fill:#FFA543;" points="162.067,99.94 178.178,122.537 175.262,105.54 			"/>
			<polygon style="fill:#FFA543;" points="162.913,75.558 170.546,91.023 162.067,99.94 			"/>
			<polygon style="fill:#FFA543;" points="138.215,93.503 162.067,99.94 150.564,105.54 			"/>
			
				<line style="fill:none;stroke:#000000;stroke-linecap:round;stroke-linejoin:round;stroke-miterlimit:10;" x1="150.564" y1="105.54" x2="138.215" y2="93.503"/>
			<polyline style="fill:none;stroke:#000000;stroke-linecap:round;stroke-linejoin:round;stroke-miterlimit:10;" points="
				162.913,114.512 147.649,122.537 149.426,112.178 			"/>
			<polyline style="fill:none;stroke:#000000;stroke-linecap:round;stroke-linejoin:round;stroke-miterlimit:10;" points="
				158.576,84.346 162.913,75.558 170.546,91.023 187.612,93.503 175.262,105.54 178.178,122.537 			"/>
		</g>
		<g>
			<polygon style="fill:#FFCC61;" points="228.641,114.512 213.377,122.537 216.292,105.54 203.943,93.503 221.009,91.023 
				228.641,75.558 236.274,91.023 253.34,93.503 240.991,105.54 243.906,122.537 			"/>
			<polygon style="fill:#FFA543;" points="253.34,93.503 227.795,99.94 240.991,105.54 			"/>
			<polygon style="fill:#FFA543;" points="227.795,99.94 213.377,122.537 228.641,114.512 			"/>
			<polygon style="fill:#FFA543;" points="227.795,99.94 213.377,122.537 228.641,114.512 			"/>
			<polygon style="fill:#FFA543;" points="227.795,99.94 243.906,122.537 240.991,105.54 			"/>
			<polygon style="fill:#FFA543;" points="228.641,75.558 236.274,91.023 227.795,99.94 			"/>
			<polygon style="fill:#FFA543;" points="203.943,93.503 227.795,99.94 216.292,105.54 			"/>
			
				<line style="fill:none;stroke:#000000;stroke-linecap:round;stroke-linejoin:round;stroke-miterlimit:10;" x1="216.292" y1="105.54" x2="203.943" y2="93.503"/>
			<polyline style="fill:none;stroke:#000000;stroke-linecap:round;stroke-linejoin:round;stroke-miterlimit:10;" points="
				228.641,114.512 213.377,122.537 215.154,112.178 			"/>
			<polyline style="fill:none;stroke:#000000;stroke-linecap:round;stroke-linejoin:round;stroke-miterlimit:10;" points="
				224.304,84.346 228.641,75.558 236.274,91.023 253.34,93.503 240.991,105.54 243.906,122.537 			"/>
		</g>
		<g>
			<polygon style="fill:#FFCC61;" points="294.37,114.512 279.105,122.537 282.02,105.54 269.671,93.503 286.737,91.023 
				294.37,75.558 302.002,91.023 319.068,93.503 306.719,105.54 309.634,122.537 			"/>
			<polygon style="fill:#FFA543;" points="319.068,93.503 293.524,99.94 306.719,105.54 			"/>
			<polygon style="fill:#FFA543;" points="293.524,99.94 279.105,122.537 294.37,114.512 			"/>
			<polygon style="fill:#FFA543;" points="293.524,99.94 279.105,122.537 294.37,114.512 			"/>
			<polygon style="fill:#FFA543;" points="293.524,99.94 309.634,122.537 306.719,105.54 			"/>
			<polygon style="fill:#FFA543;" points="294.37,75.558 302.002,91.023 293.524,99.94 			"/>
			<polygon style="fill:#FFA543;" points="269.671,93.503 293.524,99.94 282.02,105.54 			"/>
			
				<line style="fill:none;stroke:#000000;stroke-linecap:round;stroke-linejoin:round;stroke-miterlimit:10;" x1="282.02" y1="105.54" x2="269.671" y2="93.503"/>
			<polyline style="fill:none;stroke:#000000;stroke-linecap:round;stroke-linejoin:round;stroke-miterlimit:10;" points="
				294.37,114.512 279.105,122.537 280.882,112.178 			"/>
			<polyline style="fill:none;stroke:#000000;stroke-linecap:round;stroke-linejoin:round;stroke-miterlimit:10;" points="
				290.033,84.346 294.37,75.558 302.002,91.023 319.068,93.503 306.719,105.54 309.634,122.537 			"/>
		</g>
		<g>
			<polygon style="fill:#FFCC61;" points="360.098,114.512 344.833,122.537 347.749,105.54 335.399,93.503 352.466,91.023 
				360.098,75.558 367.73,91.023 384.796,93.503 372.447,105.54 375.362,122.537 			"/>
			<polygon style="fill:#FFA543;" points="384.796,93.503 359.252,99.94 372.447,105.54 			"/>
			<polygon style="fill:#FFA543;" points="359.252,99.94 344.833,122.537 360.098,114.512 			"/>
			<polygon style="fill:#FFA543;" points="359.252,99.94 344.833,122.537 360.098,114.512 			"/>
			<polygon style="fill:#FFA543;" points="359.252,99.94 375.362,122.537 372.447,105.54 			"/>
			<polygon style="fill:#FFA543;" points="360.098,75.558 367.73,91.023 359.252,99.94 			"/>
			<polygon style="fill:#FFA543;" points="335.399,93.503 359.252,99.94 347.749,105.54 			"/>
			
				<line style="fill:none;stroke:#000000;stroke-linecap:round;stroke-linejoin:round;stroke-miterlimit:10;" x1="347.749" y1="105.54" x2="335.399" y2="93.503"/>
			<polyline style="fill:none;stroke:#000000;stroke-linecap:round;stroke-linejoin:round;stroke-miterlimit:10;" points="
				360.098,114.512 344.833,122.537 346.61,112.178 			"/>
			<polyline style="fill:none;stroke:#000000;stroke-linecap:round;stroke-linejoin:round;stroke-miterlimit:10;" points="
				355.761,84.346 360.098,75.558 367.73,91.023 384.796,93.503 372.447,105.54 375.362,122.537 			"/>
		</g>
	</g>
	
		<line style="fill:none;stroke:#000000;stroke-linecap:round;stroke-linejoin:round;stroke-miterlimit:10;" x1="470.236" y1="449.992" x2="42.578" y2="449.992"/>
</g>
</svg>
