<?xml version="1.0" encoding="utf-8"?>
<!-- Generator: Adobe Illustrator 24.1.1, SVG Export Plug-In . SVG Version: 6.00 Build 0)  -->
<svg fill="#6A0093" version="1.1" id="Layer_1" xmlns="http://www.w3.org/2000/svg" xmlns:xlink="http://www.w3.org/1999/xlink" x="0px" y="0px"
	 viewBox="0 0 512 512" style="enable-background:new 0 0 512 512;" xml:space="preserve">
<g id="XMLID_1_">
	<path id="XMLID_7_" d="M256,500.8c38.1,0,59.5-26.9,59.5-65H196.5C196.5,473.9,217.9,500.8,256,500.8z M131.5,8.4
		c-2.8-5.6-8.4-8.4-13.9-8.4l0,0h-1.9c-2.8,0-5.6,0.9-8.4,2.8c-8.4,4.6-11.2,15.8-6.5,24.2l279.7,476.7c2.8,5.6,9.3,8.4,14.9,8.4
		c2.8,0,5.6-0.9,9.3-2.8c8.4-4.6,11.2-15.8,6.5-24.2L131.5,8.4z M305.2,412.6L137,126.4c-10.2,25.1-16.7,56.7-16.7,96.6
		c0,111.5-37.2,126.4-55.8,151.5c-12.1,15.8-0.9,39,19.5,39h221.2V412.6z M447.4,373.5c-18.6-25.1-55.8-40-55.8-151.5
		c0-114.3-50.2-160.8-97.6-171.9c-4.6-0.9-7.4-2.8-7.4-7.4V39c0-16.7-13.9-30.7-29.7-30.7c-16.7,0-29.7,13.9-29.7,30.7v3.7
		c0,4.6-2.8,6.5-7.4,7.4c-11.2,2.8-21.4,6.5-31.6,13l204.4,348.5h37.2C448.3,412.6,459.5,389.3,447.4,373.5z"/>
</g>
</svg>
